<svg id="Calque_1" data-name="Calque 1" xmlns="http://www.w3.org/2000/svg" viewBox="0 0 705 116" width="705" height="116">
	<defs>
		<style>
			.cls-1{fill:#fff;}
			.cls-2{fill:#1a1a1a;}

			<clipPath id="left-to-right">
	 		    <rect x="300" y="50" width="0" height="116" >
	       			<animate attributeName="width" values="0;100" dur="1s" fill="freeze"/>   
	     		</rect>
	   		</clipPath>
		</style>
	</defs>
	<title>logoIntro</title>

	<g id="BROCOLI_Blanc" data-name="BROCOLI Blanc">
		<path class="cls-1" d="M168.62,82.59h64.31a17.25,17.25,0,0,1,8.51,2,19.06,19.06,0,0,1,6.07,5.27,22.75,22.75,0,0,1,3.65,7.53,32.28,32.28,0,0,1,1.21,8.83,32.63,32.63,0,0,1-1.46,9.64,35.94,35.94,0,0,1-4.29,9.15,37,37,0,0,1-7,7.94,32.72,32.72,0,0,1-9.48,5.67,20.61,20.61,0,0,1,11.09,8q4,5.75,4,14.5,0,9.72-3.88,16.6A33,33,0,0,1,231,189a46.24,46.24,0,0,1-15.07,6.48,74.19,74.19,0,0,1-17.82,2.11H144.16ZM203.77,171a9.76,9.76,0,0,0,7-3.16q3.17-3.16,3.16-8.83a9.15,9.15,0,0,0-1.38-5.26,4.37,4.37,0,0,0-3.81-2H185.47L181.42,171Zm6-43.9a10.49,10.49,0,0,0,3.32-.57,8.4,8.4,0,0,0,3.08-1.86,9.9,9.9,0,0,0,2.26-3.48,14.88,14.88,0,0,0,.89-5.59q0-3.24-1.37-4.7a4.6,4.6,0,0,0-3.49-1.46H194.54l-3.89,17.66Z" transform="translate(-144.16 -81.94)"/>
		<path class="cls-1" d="M252.21,197.61l24.46-115h50.54a26.86,26.86,0,0,1,12.48,2.83,28.36,28.36,0,0,1,9.23,7.46,33.85,33.85,0,0,1,5.75,10.61,38.19,38.19,0,0,1,2,12.31,40.29,40.29,0,0,1-1.62,11.26,48.47,48.47,0,0,1-4.62,10.77,51.45,51.45,0,0,1-7.21,9.64,52.93,52.93,0,0,1-9.39,7.86l13.77,42.28H312l-11.18-35.32h-9.56l-7.45,35.32Zm62.53-62.86a5.32,5.32,0,0,0,2.92-1.13,12.81,12.81,0,0,0,3.07-3.24,19.55,19.55,0,0,0,2.44-5,20.12,20.12,0,0,0,1-6.32,11.94,11.94,0,0,0-1.54-6.56c-1-1.57-2.19-2.35-3.49-2.35H302.43l-5.19,24.62Z" transform="translate(-144.16 -81.94)"/>
		<path class="cls-1" d="M406.11,198.58a43,43,0,0,1-19-4.05,42.55,42.55,0,0,1-14-10.69,45.64,45.64,0,0,1-8.58-15.39,56.83,56.83,0,0,1-2.92-18.15,60.18,60.18,0,0,1,5.67-25.43A74.24,74.24,0,0,1,382.54,103,75.89,75.89,0,0,1,404.9,87.69a64,64,0,0,1,26.64-5.75,42.56,42.56,0,0,1,19,4,41.54,41.54,0,0,1,13.85,10.77,47.54,47.54,0,0,1,8.5,15.39,56.13,56.13,0,0,1,2.92,18.07,59.81,59.81,0,0,1-5.67,25.27,75.12,75.12,0,0,1-15.23,21.87,76.41,76.41,0,0,1-22.19,15.39A62.66,62.66,0,0,1,406.11,198.58Zm6.16-28a25.16,25.16,0,0,0,13.61-3.64,34.13,34.13,0,0,0,9.8-9.24,40.61,40.61,0,0,0,5.91-12.31,47.06,47.06,0,0,0,1.94-13,34.07,34.07,0,0,0-1-8.58,21.44,21.44,0,0,0-3.24-7.13,15.42,15.42,0,0,0-5.75-4.86,18.64,18.64,0,0,0-8.43-1.78,25.32,25.32,0,0,0-13.44,3.56,32.54,32.54,0,0,0-9.72,9.07A41.89,41.89,0,0,0,396,134.83a44.84,44.84,0,0,0-2,13,34.09,34.09,0,0,0,1.05,8.59,22.66,22.66,0,0,0,3.24,7.21,16,16,0,0,0,5.67,5A17.54,17.54,0,0,0,412.27,170.55Z" transform="translate(-144.16 -81.94)"/>
		<path class="cls-1" d="M525,198.58a40.5,40.5,0,0,1-18.63-4.13,42.93,42.93,0,0,1-13.77-11A48.35,48.35,0,0,1,484,167.72a58.36,58.36,0,0,1-2.91-18.39,59.17,59.17,0,0,1,5.26-24A73.36,73.36,0,0,1,501,103.73,75.37,75.37,0,0,1,523,88a63.49,63.49,0,0,1,27.79-6.08q15.87,0,26.24,6.88a32,32,0,0,1,13.61,18.23l-27.7,17.17a17,17,0,0,0-2.52-7,14.53,14.53,0,0,0-4.53-4.38,18.47,18.47,0,0,0-5.75-2.27,29.25,29.25,0,0,0-6-.64,24.57,24.57,0,0,0-13.2,3.56,33,33,0,0,0-9.64,9.07,44.49,44.49,0,0,0-7.94,24.63,34.88,34.88,0,0,0,1.14,9,22.46,22.46,0,0,0,3.4,7.45,16.87,16.87,0,0,0,5.67,5,16.66,16.66,0,0,0,8.1,1.86,29,29,0,0,0,6.24-.73,24.88,24.88,0,0,0,6.48-2.42,28.76,28.76,0,0,0,6-4.38,25.72,25.72,0,0,0,4.94-6.56l22.52,15.39a43.28,43.28,0,0,1-9.8,11.34,62.4,62.4,0,0,1-13.29,8.42,73.39,73.39,0,0,1-15,5.19A66.52,66.52,0,0,1,525,198.58Z" transform="translate(-144.16 -81.94)"/>
		<path class="cls-1" d="M631.61,198.58a43,43,0,0,1-19-4.05,42.55,42.55,0,0,1-14-10.69A45.64,45.64,0,0,1,590,168.45a56.83,56.83,0,0,1-2.92-18.15,60.18,60.18,0,0,1,5.67-25.43A74.24,74.24,0,0,1,608,103,76,76,0,0,1,630.4,87.69a64,64,0,0,1,26.65-5.75,42.54,42.54,0,0,1,19,4,41.54,41.54,0,0,1,13.85,10.77,47.75,47.75,0,0,1,8.51,15.39,56.39,56.39,0,0,1,2.91,18.07,59.81,59.81,0,0,1-5.67,25.27,74.93,74.93,0,0,1-15.23,21.87,76.41,76.41,0,0,1-22.19,15.39A62.63,62.63,0,0,1,631.61,198.58Zm6.16-28a25.16,25.16,0,0,0,13.61-3.64,34.13,34.13,0,0,0,9.8-9.24,40.61,40.61,0,0,0,5.91-12.31,46.69,46.69,0,0,0,1.94-13,34.07,34.07,0,0,0-1-8.58,21.44,21.44,0,0,0-3.24-7.13,15.42,15.42,0,0,0-5.75-4.86,18.6,18.6,0,0,0-8.42-1.78,25.33,25.33,0,0,0-13.45,3.56,32.54,32.54,0,0,0-9.72,9.07,42.14,42.14,0,0,0-5.91,12.23,45.18,45.18,0,0,0-2,13,34.09,34.09,0,0,0,1,8.59,22.88,22.88,0,0,0,3.24,7.21,16,16,0,0,0,5.67,5A17.54,17.54,0,0,0,637.77,170.55Z" transform="translate(-144.16 -81.94)"/>
		<path class="cls-1" d="M726.06,82.59h31.59L739,170.07h48.43l-5.83,27.54h-80Z" transform="translate(-144.16 -81.94)"/>
		<path class="cls-1" d="M817.42,82.59H849l-24.46,115H793Z" transform="translate(-144.16 -81.94)"/>
	</g>
</svg>