<svg id="Calque_1" data-name="Calque 1" xmlns="http://www.w3.org/2000/svg" viewBox="0 0 666.26 238.35"><defs><style>.cls-1{fill:#afe8bc;}.cls-2{fill:#fff;}</style></defs><title>logo_Brocoli_Site_fondBlanc</title><rect class="cls-1" x="308.97" y="144.41" width="351.49" height="88"/><path d="M36,20.53h58a15.51,15.51,0,0,1,7.67,1.83,17.27,17.27,0,0,1,5.47,4.74,20.53,20.53,0,0,1,3.29,6.79,29.13,29.13,0,0,1,1.09,8,29.83,29.83,0,0,1-1.31,8.69,32.94,32.94,0,0,1-3.87,8.25A33.6,33.6,0,0,1,100,65.94a29.42,29.42,0,0,1-8.54,5.11,18.55,18.55,0,0,1,10,7.23Q105,83.46,105,91.34a30,30,0,0,1-3.51,15,29.63,29.63,0,0,1-9.34,10.15,42.1,42.1,0,0,1-13.58,5.84,67.44,67.44,0,0,1-16.06,1.89H13.93Zm31.68,79.72A8.77,8.77,0,0,0,74,97.4q2.85-2.85,2.85-8a8.28,8.28,0,0,0-1.24-4.75,3.92,3.92,0,0,0-3.43-1.82h-21l-3.66,17.37Zm5.4-39.57a9.45,9.45,0,0,0,3-.51,7.46,7.46,0,0,0,2.77-1.68,8.7,8.7,0,0,0,2-3.14,13.55,13.55,0,0,0,.8-5,6.08,6.08,0,0,0-1.24-4.24,4.17,4.17,0,0,0-3.14-1.31h-18l-3.5,15.91Z"/><path d="M111.32,124.19l22-103.66h45.55a24.3,24.3,0,0,1,11.25,2.56,25.69,25.69,0,0,1,8.32,6.71,30.89,30.89,0,0,1,5.18,9.57,34.34,34.34,0,0,1,1.83,11.09A36.42,36.42,0,0,1,204,60.61a43.38,43.38,0,0,1-4.17,9.71A46.39,46.39,0,0,1,193.37,79a48.44,48.44,0,0,1-8.47,7.08l12.41,38.1H165.19L155.12,92.37H146.5l-6.71,31.82Zm56.35-56.64a4.69,4.69,0,0,0,2.63-1,11.32,11.32,0,0,0,2.77-2.92,17.44,17.44,0,0,0,2.19-4.52,17.74,17.74,0,0,0,.88-5.7,10.67,10.67,0,0,0-1.39-5.91,3.86,3.86,0,0,0-3.14-2.12h-15l-4.68,22.2Z"/><path d="M250,125.07a38.84,38.84,0,0,1-17.16-3.65,38.33,38.33,0,0,1-12.63-9.64,41.18,41.18,0,0,1-7.73-13.87,51.09,51.09,0,0,1-2.63-16.35A54.19,54.19,0,0,1,215,58.64a66.83,66.83,0,0,1,13.79-19.71,68.48,68.48,0,0,1,20.15-13.8,57.74,57.74,0,0,1,24-5.18A38.37,38.37,0,0,1,290,23.6a37.21,37.21,0,0,1,12.48,9.71,42.76,42.76,0,0,1,7.67,13.87,50.76,50.76,0,0,1,2.63,16.28,53.94,53.94,0,0,1-5.11,22.77A67.58,67.58,0,0,1,294,105.94a68.56,68.56,0,0,1-20,13.87A56.37,56.37,0,0,1,250,125.07Zm5.55-25.26a22.63,22.63,0,0,0,12.26-3.28,30.63,30.63,0,0,0,8.83-8.33A36.35,36.35,0,0,0,282,77.11a42.17,42.17,0,0,0,1.75-11.75,30.29,30.29,0,0,0-.95-7.74,19.3,19.3,0,0,0-2.92-6.43,14,14,0,0,0-5.18-4.38,16.79,16.79,0,0,0-7.59-1.6A22.79,22.79,0,0,0,255,48.42a29.48,29.48,0,0,0-8.76,8.17,38.35,38.35,0,0,0-5.33,11,40.56,40.56,0,0,0-1.82,11.75,30.29,30.29,0,0,0,1,7.74,20.14,20.14,0,0,0,2.92,6.5,14.31,14.31,0,0,0,5.11,4.52A15.73,15.73,0,0,0,255.57,99.81Z"/><path d="M357.18,125.07a36.48,36.48,0,0,1-16.79-3.72A38.68,38.68,0,0,1,328,111.42a43.5,43.5,0,0,1-7.74-14.16,52.58,52.58,0,0,1-2.63-16.57,53.22,53.22,0,0,1,4.75-21.61A66,66,0,0,1,335.5,39.59a68.14,68.14,0,0,1,19.85-14.17,57.37,57.37,0,0,1,25-5.47q14.31,0,23.66,6.2a28.85,28.85,0,0,1,12.26,16.43l-25,15.47a15.21,15.21,0,0,0-2.26-6.27A13,13,0,0,0,385,47.84a16.27,16.27,0,0,0-5.18-2.05,26.13,26.13,0,0,0-5.4-.58,22.12,22.12,0,0,0-11.9,3.21,29.71,29.71,0,0,0-8.69,8.17,38.78,38.78,0,0,0-5.33,10.88,38.25,38.25,0,0,0-1.82,11.32,31.65,31.65,0,0,0,1,8.1,20.14,20.14,0,0,0,3.07,6.72,15.2,15.2,0,0,0,5.11,4.52,14.94,14.94,0,0,0,7.3,1.68,26.21,26.21,0,0,0,5.62-.66A22,22,0,0,0,374.63,97,25.4,25.4,0,0,0,380,93a23,23,0,0,0,4.45-5.91L404.78,101a38.89,38.89,0,0,1-8.84,10.22,56.41,56.41,0,0,1-12,7.59,65.77,65.77,0,0,1-13.5,4.67A59.73,59.73,0,0,1,357.18,125.07Z"/><path d="M453.25,125.07a38.84,38.84,0,0,1-17.16-3.65,38.33,38.33,0,0,1-12.63-9.64,41.21,41.21,0,0,1-7.74-13.87,51.36,51.36,0,0,1-2.62-16.35,54.19,54.19,0,0,1,5.11-22.92A66.83,66.83,0,0,1,432,38.93a68.48,68.48,0,0,1,20.15-13.8,57.74,57.74,0,0,1,24-5.18,38.37,38.37,0,0,1,17.08,3.65,37.31,37.31,0,0,1,12.48,9.71,42.76,42.76,0,0,1,7.67,13.87A50.76,50.76,0,0,1,516,63.46a53.94,53.94,0,0,1-5.11,22.77,67.77,67.77,0,0,1-13.73,19.71,68.56,68.56,0,0,1-20,13.87A56.37,56.37,0,0,1,453.25,125.07Zm5.54-25.26a22.67,22.67,0,0,0,12.27-3.28,30.76,30.76,0,0,0,8.83-8.33,36.35,36.35,0,0,0,5.33-11.09A42.17,42.17,0,0,0,487,65.36a30.29,30.29,0,0,0-1-7.74,19.3,19.3,0,0,0-2.92-6.43,14,14,0,0,0-5.18-4.38,16.79,16.79,0,0,0-7.59-1.6,22.76,22.76,0,0,0-12.12,3.21,29.48,29.48,0,0,0-8.76,8.17,38.09,38.09,0,0,0-5.33,11,40.56,40.56,0,0,0-1.82,11.75,30.29,30.29,0,0,0,.95,7.74,20.14,20.14,0,0,0,2.92,6.5,14.31,14.31,0,0,0,5.11,4.52A15.69,15.69,0,0,0,458.79,99.81Z"/><path d="M538.36,20.53h28.47L550,99.37H593.7l-5.26,24.82H516.32Z"/><path d="M620.71,20.53h28.47l-22,103.66H598.66Z"/><path class="cls-2" d="M348.24,157.57h12.37l7.63,58.93H354.3l-1.25-13.2H336.29l-6.73,13.2h-14Zm4.56,36.35-1.66-20.83-10.79,20.83Z"/><path class="cls-2" d="M410.82,210.69a32.55,32.55,0,0,1-7.76,4.69,22,22,0,0,1-16.64-.21,20,20,0,0,1-6.77-4.9,22.27,22.27,0,0,1-4.44-7.59,29.27,29.27,0,0,1-1.57-9.84A33.24,33.24,0,0,1,376.58,179a37.44,37.44,0,0,1,7.89-11.37A38.15,38.15,0,0,1,395.76,160a32,32,0,0,1,13.15-2.82,22.82,22.82,0,0,1,12.91,3.45,16.13,16.13,0,0,1,6.85,9.42L417,177.65a10.9,10.9,0,0,0-4.11-6.18,11.65,11.65,0,0,0-7-2.2,14.26,14.26,0,0,0-6.93,1.79,19.43,19.43,0,0,0-5.77,4.81,24.39,24.39,0,0,0-4,7,23.62,23.62,0,0,0-1.5,8.39,18.63,18.63,0,0,0,.75,5.39,12.77,12.77,0,0,0,2.2,4.32,10.21,10.21,0,0,0,3.49,2.82,10.54,10.54,0,0,0,4.69,1q7.38,0,14.85-7.31l.42-1.91H403.35l2.07-9.87h22l-6.56,30.79H409.58Z"/><path class="cls-2" d="M442.19,157.57H481l-2.58,12H453.23L450.83,181h21.58l-2.33,11H448.5l-2.74,12.54h25.9l-2.49,11.95H429.66Z"/><path class="cls-2" d="M490,157.57h10.62l17.68,34.61,7.31-34.61h13.61L526.69,216.5H515.9l-17.68-33.7-7.14,33.7H477.47Z"/><path class="cls-2" d="M562.29,217a19.84,19.84,0,0,1-9.29-2.12,21.32,21.32,0,0,1-6.89-5.64,25.14,25.14,0,0,1-4.28-8.06,30.23,30.23,0,0,1-1.45-9.33,29.52,29.52,0,0,1,1.2-8.22,37.2,37.2,0,0,1,8.76-15.19,37.36,37.36,0,0,1,7.06-5.81,35.94,35.94,0,0,1,8.46-3.94,31.49,31.49,0,0,1,9.63-1.45q8,0,13,3.56a16.81,16.81,0,0,1,6.72,9.3l-12,7.31a10,10,0,0,0-1.45-3.86,8.6,8.6,0,0,0-2.54-2.49,9.64,9.64,0,0,0-3.23-1.33,16.19,16.19,0,0,0-3.41-.38,14.68,14.68,0,0,0-7.71,2,19.49,19.49,0,0,0-5.77,5.23,24.41,24.41,0,0,0-3.61,7,23.83,23.83,0,0,0-1.25,7.39,19.41,19.41,0,0,0,.71,5.31,14.07,14.07,0,0,0,2.07,4.4,10.16,10.16,0,0,0,3.45,3,9.87,9.87,0,0,0,4.73,1.12,15,15,0,0,0,3.61-.46,16.72,16.72,0,0,0,3.73-1.41,16,16,0,0,0,3.57-2.49,14.29,14.29,0,0,0,2.95-3.78l9.79,6.56a23.75,23.75,0,0,1-5.06,5.81,32.21,32.21,0,0,1-6.68,4.32,36.73,36.73,0,0,1-7.47,2.65A31.86,31.86,0,0,1,562.29,217Z"/><path class="cls-2" d="M608.86,196.25l-11.29-38.68h14.77l5.73,27.06,17.51-27.06h14.78L622.3,196.41l-4.23,20.09H604.46Z"/></svg>