<svg id="Calque_1" data-name="Calque 1" xmlns="http://www.w3.org/2000/svg" viewBox="0 0 666.26 238.35"><defs><style>.cls-1{fill:#fff;}</style></defs><title>logo_Brocoli_Site</title><path d="M36.31,20.53h58a15.47,15.47,0,0,1,7.66,1.83,17.31,17.31,0,0,1,5.48,4.74,20.51,20.51,0,0,1,3.28,6.79,29.14,29.14,0,0,1,1.1,8,29.83,29.83,0,0,1-1.31,8.69,32.94,32.94,0,0,1-3.87,8.25,33.88,33.88,0,0,1-6.28,7.15,29.42,29.42,0,0,1-8.54,5.11,18.59,18.59,0,0,1,10,7.23q3.57,5.18,3.57,13.06a28.68,28.68,0,0,1-12.84,25.12,42.2,42.2,0,0,1-13.58,5.84,67.44,67.44,0,0,1-16.06,1.89H14.26ZM68,100.25a8.8,8.8,0,0,0,6.35-2.85q2.85-2.85,2.85-8A8.35,8.35,0,0,0,76,84.7a3.92,3.92,0,0,0-3.43-1.82h-21l-3.65,17.37Zm5.4-39.57a9.44,9.44,0,0,0,3-.51,7.42,7.42,0,0,0,2.78-1.68,8.68,8.68,0,0,0,2-3.14,13.34,13.34,0,0,0,.81-5,6,6,0,0,0-1.25-4.24,4.13,4.13,0,0,0-3.14-1.31h-18L56.16,60.68Z"/><path d="M111.64,124.19l22-103.66h45.55a24.26,24.26,0,0,1,11.24,2.56,25.59,25.59,0,0,1,8.32,6.71A30.92,30.92,0,0,1,204,39.37a34.6,34.6,0,0,1,1.82,11.09,36.42,36.42,0,0,1-1.46,10.15,43.34,43.34,0,0,1-4.16,9.71,46.44,46.44,0,0,1-6.5,8.69,48,48,0,0,1-8.46,7.08l12.41,38.1H165.52L155.44,92.37h-8.61l-6.72,31.82ZM168,67.55a4.72,4.72,0,0,0,2.63-1,11.49,11.49,0,0,0,2.77-2.92,17.44,17.44,0,0,0,2.19-4.52,18,18,0,0,0,.88-5.7,10.76,10.76,0,0,0-1.39-5.91c-.93-1.41-2-2.12-3.14-2.12h-15l-4.67,22.2Z"/><path d="M250.34,125.07a38.83,38.83,0,0,1-17.15-3.65,38.23,38.23,0,0,1-12.63-9.64,41,41,0,0,1-7.74-13.87,51.37,51.37,0,0,1-2.63-16.35,54.34,54.34,0,0,1,5.11-22.92,67,67,0,0,1,13.8-19.71,68.48,68.48,0,0,1,20.15-13.8,57.7,57.7,0,0,1,24-5.18,38.4,38.4,0,0,1,17.08,3.65,37.41,37.41,0,0,1,12.48,9.71,43,43,0,0,1,7.67,13.87,50.75,50.75,0,0,1,2.62,16.28A53.79,53.79,0,0,1,308,86.23a67.55,67.55,0,0,1-13.72,19.71,68.56,68.56,0,0,1-20,13.87A56.42,56.42,0,0,1,250.34,125.07Zm5.55-25.26a22.69,22.69,0,0,0,12.27-3.28A30.76,30.76,0,0,0,277,88.2a36.58,36.58,0,0,0,5.33-11.09,42.17,42.17,0,0,0,1.75-11.75,30.74,30.74,0,0,0-.95-7.74,19.3,19.3,0,0,0-2.92-6.43A14,14,0,0,0,275,46.81a16.79,16.79,0,0,0-7.59-1.6,22.76,22.76,0,0,0-12.12,3.21,29.24,29.24,0,0,0-8.76,8.17,38.09,38.09,0,0,0-5.33,11,40.58,40.58,0,0,0-1.83,11.75,30.74,30.74,0,0,0,1,7.74,20.58,20.58,0,0,0,2.92,6.5,14.48,14.48,0,0,0,5.11,4.52A15.73,15.73,0,0,0,255.89,99.81Z"/><path d="M357.51,125.07a36.45,36.45,0,0,1-16.79-3.72,38.57,38.57,0,0,1-12.41-9.93,43.5,43.5,0,0,1-7.74-14.16,52.58,52.58,0,0,1-2.63-16.57,53.22,53.22,0,0,1,4.75-21.61,66,66,0,0,1,13.14-19.49,68.14,68.14,0,0,1,19.85-14.17,57.34,57.34,0,0,1,25-5.47q14.31,0,23.65,6.2a28.82,28.82,0,0,1,12.27,16.43l-25,15.47a15.35,15.35,0,0,0-2.26-6.27,13,13,0,0,0-4.09-3.94,16.46,16.46,0,0,0-5.18-2.05,26.16,26.16,0,0,0-5.41-.58,22.1,22.1,0,0,0-11.89,3.21,29.59,29.59,0,0,0-8.69,8.17A40.08,40.08,0,0,0,347,78.79a31.22,31.22,0,0,0,1,8.1,20.32,20.32,0,0,0,3.06,6.72,15.29,15.29,0,0,0,5.11,4.52,15,15,0,0,0,7.3,1.68,26.13,26.13,0,0,0,5.62-.66A21.71,21.71,0,0,0,375,97,25.46,25.46,0,0,0,380.36,93a23.26,23.26,0,0,0,4.45-5.91L405.1,101a38.84,38.84,0,0,1-8.83,10.22,56.41,56.41,0,0,1-12,7.59,65.85,65.85,0,0,1-13.51,4.67A59.57,59.57,0,0,1,357.51,125.07Z"/><path d="M453.57,125.07a38.83,38.83,0,0,1-17.15-3.65,38.13,38.13,0,0,1-12.63-9.64,41,41,0,0,1-7.74-13.87,51.37,51.37,0,0,1-2.63-16.35,54.34,54.34,0,0,1,5.11-22.92,67,67,0,0,1,13.8-19.71,68.48,68.48,0,0,1,20.15-13.8,57.7,57.7,0,0,1,24-5.18,38.4,38.4,0,0,1,17.08,3.65,37.41,37.41,0,0,1,12.48,9.71,43,43,0,0,1,7.67,13.87,50.75,50.75,0,0,1,2.62,16.28,53.79,53.79,0,0,1-5.11,22.77,67.55,67.55,0,0,1-13.72,19.71,68.69,68.69,0,0,1-20,13.87A56.42,56.42,0,0,1,453.57,125.07Zm5.55-25.26a22.69,22.69,0,0,0,12.27-3.28,30.76,30.76,0,0,0,8.83-8.33,36.58,36.58,0,0,0,5.33-11.09,42.17,42.17,0,0,0,1.75-11.75,30.74,30.74,0,0,0-.95-7.74,19.5,19.5,0,0,0-2.92-6.43,14,14,0,0,0-5.18-4.38,16.8,16.8,0,0,0-7.6-1.6,22.75,22.75,0,0,0-12.11,3.21,29.24,29.24,0,0,0-8.76,8.17,37.84,37.84,0,0,0-5.33,11,40.58,40.58,0,0,0-1.83,11.75,30.74,30.74,0,0,0,.95,7.74,20.36,20.36,0,0,0,2.92,6.5,14.48,14.48,0,0,0,5.11,4.52A15.73,15.73,0,0,0,459.12,99.81Z"/><path d="M538.69,20.53h28.47L550.37,99.37H594l-5.25,24.82H516.64Z"/><path d="M621,20.53H649.5l-22,103.66H599Z"/><path class="cls-1" d="M348.57,157.57h12.36l7.64,58.93H354.62l-1.24-13.2H336.61l-6.72,13.2h-14Zm4.56,36.35-1.66-20.83-10.79,20.83Z"/><path class="cls-1" d="M411.15,210.69a32.75,32.75,0,0,1-7.76,4.69,22,22,0,0,1-16.65-.21,20,20,0,0,1-6.76-4.9,22.11,22.11,0,0,1-4.44-7.59,29.27,29.27,0,0,1-1.58-9.84,33.09,33.09,0,0,1,3-13.82,37.41,37.41,0,0,1,7.88-11.37A38.41,38.41,0,0,1,396.08,160a32.12,32.12,0,0,1,13.16-2.82,22.78,22.78,0,0,1,12.9,3.45A16.13,16.13,0,0,1,429,170l-11.7,7.63a10.9,10.9,0,0,0-4.11-6.18,11.67,11.67,0,0,0-7-2.2,14.26,14.26,0,0,0-6.93,1.79,19.43,19.43,0,0,0-5.77,4.81,24.65,24.65,0,0,0-4,7,23.83,23.83,0,0,0-1.49,8.39,18.63,18.63,0,0,0,.75,5.39,12.6,12.6,0,0,0,2.2,4.32,10.18,10.18,0,0,0,3.48,2.82,10.61,10.61,0,0,0,4.69,1q7.39,0,14.86-7.31l.41-1.91h-10.7l2.07-9.87h22l-6.56,30.79H409.9Z"/><path class="cls-1" d="M442.52,157.57h38.76l-2.57,12H453.56L451.15,181h21.58l-2.32,11H448.83l-2.74,12.54H472L469.5,216.5H430Z"/><path class="cls-1" d="M490.33,157.57H501l17.68,34.61,7.31-34.61h13.61L527,216.5H516.22l-17.68-33.7-7.13,33.7H477.79Z"/><path class="cls-1" d="M562.62,217a19.86,19.86,0,0,1-9.3-2.12,21.43,21.43,0,0,1-6.89-5.64,25.12,25.12,0,0,1-4.27-8.06,30.23,30.23,0,0,1-1.45-9.33,29.52,29.52,0,0,1,1.2-8.22,36.91,36.91,0,0,1,8.76-15.19,37.61,37.61,0,0,1,7.05-5.81,35.82,35.82,0,0,1,8.47-3.94,31.49,31.49,0,0,1,9.63-1.45q8,0,13,3.56a16.9,16.9,0,0,1,6.72,9.3l-12,7.31a9.85,9.85,0,0,0-1.45-3.86,8.45,8.45,0,0,0-2.53-2.49,9.61,9.61,0,0,0-3.24-1.33,16.1,16.1,0,0,0-3.4-.38,14.72,14.72,0,0,0-7.72,2,19.61,19.61,0,0,0-5.77,5.23,24.67,24.67,0,0,0-3.61,7,23.81,23.81,0,0,0-1.24,7.39,19.41,19.41,0,0,0,.7,5.31,14.08,14.08,0,0,0,2.08,4.4,10.13,10.13,0,0,0,3.44,3,9.89,9.89,0,0,0,4.73,1.12,14.83,14.83,0,0,0,3.61-.46,16.79,16.79,0,0,0,3.74-1.41,16.45,16.45,0,0,0,3.57-2.49,14.5,14.5,0,0,0,2.95-3.78l9.79,6.56a24,24,0,0,1-5.06,5.81,32.48,32.48,0,0,1-6.68,4.32,36.6,36.6,0,0,1-7.48,2.65A31.84,31.84,0,0,1,562.62,217Z"/><path class="cls-1" d="M609.18,196.25,597.9,157.57h14.77l5.73,27.06,17.51-27.06h14.77l-28,38.84L618.4,216.5H604.78Z"/></svg>